<?xml version="1.0" encoding="UTF-8"?>
<svg id="Layer_1" xmlns="http://www.w3.org/2000/svg" version="1.1" viewBox="0 0 34.31 35">
  <!-- Generator: Adobe Illustrator 30.6.0, SVG Export Plug-In . SVG Version: 2.1.4 Build 109)  -->
  <defs>
    <style>
      .st0 {
        fill: #000006;
      }
    </style>
  </defs>
  <path class="st0" d="M34.22,22.59l-1.48-9.47c-.28-1.81-1.21-3.45-2.63-4.62L21.83,1.69c-1.33-1.09-3.01-1.69-4.73-1.69s-3.41.6-4.74,1.69l-8.28,6.81c-1.41,1.17-2.35,2.8-2.64,4.62L.1,21.66c-.61,3.91,1.5,7.73,5.13,9.29l7.09,3.06c1.47.65,3.13.98,4.76.98s3.27-.32,4.77-.98l7.96-3.44c3.13-1.35,4.94-4.63,4.41-7.99ZM13.11,32.2l-7.09-3.06c-2.81-1.21-4.44-4.17-3.97-7.18l1.34-8.54c.21-1.33.9-2.53,1.93-3.39L13.61,3.21c1.01-.83,2.25-1.24,3.48-1.24s2.48.41,3.48,1.24l8.28,6.81c1.04.86,1.73,2.07,1.94,3.39l1.48,9.47c.39,2.47-.95,4.89-3.24,5.87l-7.96,3.44c-2.53,1.1-5.43,1.1-7.97,0Z"/>
  <path class="st0" d="M29.58,19.65c-.41-.72-.98-1.3-1.63-1.73,1.48-1.71,1.75-4.24.5-6.26-1.31-2.12-3.91-2.99-6.19-2.21-.15-2.77-2.45-4.99-5.26-4.99s-5.25,2.34-5.28,5.23c-.6-.21-1.25-.32-1.9-.31-1.41.04-2.72.64-3.68,1.66-.97,1.03-1.47,2.37-1.44,3.78.04,1.33.58,2.58,1.5,3.53-.49.4-.92.88-1.26,1.46-1.46,2.52-.59,5.76,1.93,7.21.83.48,1.73.71,2.63.71.76,0,1.53-.18,2.22-.5.42,1.3,1.31,2.37,2.51,3.02.79.43,1.64.63,2.49.63,1.89,0,3.71-1.01,4.66-2.78.26-.49.44-1.01.54-1.53.9.65,1.98,1,3.08,1,.9,0,1.81-.23,2.63-.71,2.52-1.45,3.39-4.7,1.94-7.21ZM14.52,20.82c-.26-.78-.68-1.47-1.25-2.05.2-.15.4-.31.57-.49.91-.97,1.41-2.24,1.43-3.57.55.2,1.13.31,1.74.31s1.16-.1,1.69-.28c.04.85.31,1.71.78,2.49.4.65.93,1.18,1.54,1.59-.62.72-1.03,1.58-1.2,2.5-.19-.13-.38-.26-.58-.37-1.52-.82-3.26-.8-4.71-.13Z"/>
</svg>