<?xml version="1.0" encoding="UTF-8"?>
<svg id="Layer_1" xmlns="http://www.w3.org/2000/svg" version="1.1" viewBox="0 0 38.95 37.17">
  <!-- Generator: Adobe Illustrator 30.6.0, SVG Export Plug-In . SVG Version: 2.1.4 Build 109)  -->
  <defs>
    <style>
      .st0 {
        stroke-miterlimit: 10;
      }

      .st0, .st1 {
        fill: none;
        stroke: #000;
      }
    </style>
  </defs>
  <path class="st1" d="M12.84,36.67c-6.82,0-12.35-5.54-12.34-12.36,0-2.16.57-4.29,1.65-6.16l6.63-11.48C12.2.76,19.75-1.25,25.66,2.16c1.87,1.08,3.42,2.64,4.51,4.51l6.63,11.48c3.41,5.91,1.38,13.46-4.53,16.87-1.87,1.08-4,1.65-6.16,1.65h-13.26Z" vector-effect="non-scaling-stroke"/>
  <path class="st0" d="M27.01,16.15c.44-1.01.69-2.13.69-3.3,0-4.55-3.68-8.23-8.23-8.23s-8.23,3.68-8.23,8.23c0,1.18.25,2.29.69,3.3-4.12.45-7.32,3.94-7.32,8.18,0,4.55,3.68,8.23,8.23,8.23,2.72,0,5.13-1.33,6.63-3.37,1.5,2.04,3.91,3.37,6.63,3.37,4.55,0,8.23-3.68,8.23-8.23,0-4.24-3.21-7.73-7.32-8.18Z"/>
</svg>